# xmcd
# 
# Track frame offsets:
#     225
#     23737
#     48290
#     85667
#     107815
#     132427
#     160537
#     182242
#     194692
#     212132
#     243397
# 
# Disc length: 3807
# 
# Revision: 7
# Processed by: cddbd v1.5.2PL0 Copyright (c) Steve Scherf et al.
# Submitted via: fre:ac v1.0.31
# 
DISCID=930edc0b
DTITLE=The Chemical Brothers - Dig Your Own Hole
DYEAR=1997
DGENRE=Electronica
TTITLE0=Block Rockin' Beats
TTITLE1=Dig Your Own Hole
TTITLE2=Elektrobank
TTITLE3=Piku
TTITLE4=Setting Sun
TTITLE5=It Doesn't Matter
TTITLE6=Don't Stop the Rock
TTITLE7=Get Up on It Like This
TTITLE8=Lost in the K-Hole
TTITLE9=Where Do I Begin
TTITLE10=Private Psychedelic Reel
EXTD=
EXTT0=
EXTT1=
EXTT2=
EXTT3=
EXTT4=
EXTT5=
EXTT6=
EXTT7=
EXTT8=
EXTT9=
EXTT10=
PLAYORDER=
